<svg id="sws_symbol" xmlns="http://www.w3.org/2000/svg"
	 viewBox="0 0 284 278" style="enable-background:new 0 0 284 278;">
<style type="text/css">
	.st0{fill:none;stroke:#000000;stroke-width:11;stroke-miterlimit:10;}
	.st1{fill:none;stroke:#1B4270;stroke-width:11;stroke-miterlimit:10;}
</style>
<rect x="107" y="104" class="st0" width="71" height="71"/>
<path class="st0" d="M108,72c0,9.39-1,32-1,32s-23.61,2-33,2c-18.78,0-34-15.22-34-34s15.22-34,34-34S108,53.22,108,72z"/>
<path class="st0" d="M246,70c0,18.78-15.22,34-34,34c-8.54,0-34,0-34,0s0-23.76,0-34c0-18.78,15.22-34,34-34S246,51.22,246,70z"/>
<path class="st0" d="M246,209c0,18.78-15.22,34-34,34s-34-15.22-34-34c0-9.39,0-34,0-34s24.61,0,34,0C230.78,175,246,190.22,246,209
	z"/>
<path class="st0" d="M108,209c0,18.78-15.22,34-34,34s-34-15.22-34-34s15.22-34,34-34c8.92,0,33,0,33,0S108,199.14,108,209z"/>
<path class="st1" d="M251.94,271.5H32.41c-14.25,0-25.91-11.66-25.91-25.91V36.26C6.5,19.89,19.89,6.5,36.26,6.5h202.1
	c21.53,0,39.14,17.61,39.14,39.14v200.3C277.5,260,266,271.5,251.94,271.5z"/>
</svg>
